<svg width="112" height="23" viewBox="0 0 112 23" fill="none" xmlns="http://www.w3.org/2000/svg">
<path d="M16.918 12.0547C16.918 12.6562 16.8398 13.1992 16.6836 13.6836C16.5352 14.1602 16.3359 14.582 16.0859 14.9492C15.8359 15.3164 15.543 15.6289 15.207 15.8867C14.8711 16.1445 14.5234 16.3555 14.1641 16.5195C13.8047 16.6836 13.4375 16.8047 13.0625 16.8828C12.6953 16.9609 12.3477 17 12.0195 17H0.265625V13.9531H12.0195C12.6055 13.9531 13.0586 13.7812 13.3789 13.4375C13.707 13.0938 13.8711 12.6328 13.8711 12.0547C13.8711 11.7734 13.8281 11.5156 13.7422 11.2812C13.6562 11.0469 13.5312 10.8438 13.3672 10.6719C13.2109 10.5 13.0156 10.3672 12.7812 10.2734C12.5547 10.1797 12.3008 10.1328 12.0195 10.1328H5.01172C4.51953 10.1328 3.98828 10.0469 3.41797 9.875C2.84766 9.69531 2.31641 9.41016 1.82422 9.01953C1.33984 8.62891 0.933594 8.11719 0.605469 7.48438C0.285156 6.85156 0.125 6.07812 0.125 5.16406C0.125 4.25 0.285156 3.48047 0.605469 2.85547C0.933594 2.22266 1.33984 1.71094 1.82422 1.32031C2.31641 0.921875 2.84766 0.636719 3.41797 0.464844C3.98828 0.285156 4.51953 0.195312 5.01172 0.195312H15.3828V3.24219H5.01172C4.43359 3.24219 3.98047 3.41797 3.65234 3.76953C3.33203 4.12109 3.17188 4.58594 3.17188 5.16406C3.17188 5.75 3.33203 6.21484 3.65234 6.55859C3.98047 6.89453 4.43359 7.0625 5.01172 7.0625H12.0195H12.043C12.3711 7.07031 12.7188 7.11719 13.0859 7.20312C13.4531 7.28125 13.8164 7.40625 14.1758 7.57812C14.543 7.75 14.8906 7.96875 15.2188 8.23438C15.5469 8.49219 15.8359 8.80469 16.0859 9.17188C16.3438 9.53906 16.5469 9.96094 16.6953 10.4375C16.8438 10.9141 16.918 11.4531 16.918 12.0547ZM30.0898 7.37891H24.7695V17H21.6875V7.37891H17.7266V4.33203H21.6875V0.195312H24.7695V4.33203H30.0898V7.37891ZM43.1094 7.37891H36.2539C35.8398 7.37891 35.5273 7.48438 35.3164 7.69531C35.1055 7.89844 35 8.19922 35 8.59766V17H31.9531V8.59766C31.9531 8.07422 32.0195 7.60547 32.1523 7.19141C32.2852 6.77734 32.4609 6.41406 32.6797 6.10156C32.9062 5.78125 33.1641 5.51172 33.4531 5.29297C33.7422 5.06641 34.043 4.88281 34.3555 4.74219C34.6758 4.60156 34.9961 4.5 35.3164 4.4375C35.6445 4.36719 35.9492 4.33203 36.2305 4.33203H43.1094V7.37891ZM58.707 8.52734C58.707 8.94922 58.6328 9.40625 58.4844 9.89844C58.3359 10.3828 58.0938 10.8359 57.7578 11.2578C57.4297 11.6719 56.9961 12.0195 56.457 12.3008C55.9258 12.582 55.2773 12.7227 54.5117 12.7227H49.0156V9.82812H54.5117C54.9258 9.82812 55.2461 9.70312 55.4727 9.45312C55.6992 9.19531 55.8125 8.87891 55.8125 8.50391C55.8125 8.10547 55.6836 7.79297 55.4258 7.56641C55.1758 7.33984 54.8711 7.22656 54.5117 7.22656H49.0156C48.6016 7.22656 48.2812 7.35547 48.0547 7.61328C47.8281 7.86328 47.7148 8.17578 47.7148 8.55078V12.8047C47.7148 13.2109 47.8398 13.5273 48.0898 13.7539C48.3477 13.9805 48.6641 14.0938 49.0391 14.0938H54.5117V17H49.0156C48.5938 17 48.1367 16.9258 47.6445 16.7773C47.1602 16.6289 46.707 16.3906 46.2852 16.0625C45.8711 15.7266 45.5234 15.293 45.2422 14.7617C44.9609 14.2227 44.8203 13.5703 44.8203 12.8047V8.52734C44.8203 8.10547 44.8945 7.65234 45.043 7.16797C45.1914 6.67578 45.4297 6.22266 45.7578 5.80859C46.0938 5.38672 46.5273 5.03516 47.0586 4.75391C47.5977 4.47266 48.25 4.33203 49.0156 4.33203H54.5117C54.9336 4.33203 55.3867 4.40625 55.8711 4.55469C56.3633 4.70312 56.8164 4.94531 57.2305 5.28125C57.6523 5.60938 58.0039 6.04297 58.2852 6.58203C58.5664 7.11328 58.707 7.76172 58.707 8.52734ZM73.7422 12.8047C73.7422 13.2266 73.668 13.6836 73.5195 14.1758C73.3711 14.6602 73.1289 15.1133 72.793 15.5352C72.4648 15.9492 72.0312 16.2969 71.4922 16.5781C70.9609 16.8594 70.3125 17 69.5469 17H64.0508C63.6289 17 63.1719 16.9258 62.6797 16.7773C62.1953 16.6289 61.7422 16.3906 61.3203 16.0625C60.9062 15.7266 60.5586 15.293 60.2773 14.7617C59.9961 14.2227 59.8555 13.5703 59.8555 12.8047C59.8555 12.3828 59.9297 11.9258 60.0781 11.4336C60.2266 10.9414 60.4648 10.4883 60.793 10.0742C61.1289 9.65234 61.5625 9.30078 62.0938 9.01953C62.6328 8.73828 63.2852 8.59766 64.0508 8.59766H69.5469V11.5039H64.0508C63.6367 11.5039 63.3164 11.6328 63.0898 11.8906C62.8633 12.1406 62.75 12.4531 62.75 12.8281C62.75 13.2266 62.8789 13.5391 63.1367 13.7656C63.4023 13.9844 63.7148 14.0938 64.0742 14.0938H69.5469C69.9609 14.0938 70.2812 13.9688 70.5078 13.7188C70.7344 13.4688 70.8477 13.1562 70.8477 12.7812V8.52734C70.8477 8.12891 70.7227 7.8125 70.4727 7.57812C70.2305 7.34375 69.9219 7.22656 69.5469 7.22656H62.8555V4.33203H69.5469C69.9688 4.33203 70.4219 4.40625 70.9062 4.55469C71.3984 4.70312 71.8516 4.94531 72.2656 5.28125C72.6875 5.60938 73.0391 6.04297 73.3203 6.58203C73.6016 7.11328 73.7422 7.76172 73.7422 8.52734V12.8047ZM87.6523 17H84.6055V8.59766C84.6055 8.19922 84.5 7.89844 84.2891 7.69531C84.0781 7.48438 83.7656 7.37891 83.3516 7.37891H79.3906V17H76.3438V5.84375C76.3438 5.63281 76.3828 5.4375 76.4609 5.25781C76.5391 5.07031 76.6484 4.91016 76.7891 4.77734C76.9297 4.63672 77.0938 4.52734 77.2812 4.44922C77.4688 4.37109 77.668 4.33203 77.8789 4.33203H83.375C83.7969 4.33203 84.25 4.40625 84.7344 4.55469C85.2188 4.70312 85.6797 4.94141 86.1172 5.26953V4.33203H90.2422C90.5312 4.33203 90.8359 4.36719 91.1562 4.4375C91.4766 4.5 91.793 4.60156 92.1055 4.74219C92.4258 4.88281 92.7305 5.06641 93.0195 5.29297C93.3086 5.51172 93.5625 5.78125 93.7812 6.10156C94 6.41406 94.1758 6.77734 94.3086 7.19141C94.4414 7.60547 94.5078 8.07422 94.5078 8.59766V17H91.4609V8.59766C91.4609 8.19922 91.3594 7.89844 91.1562 7.69531C90.9609 7.48438 90.6562 7.37891 90.2422 7.37891H87.5C87.6016 7.75391 87.6523 8.16016 87.6523 8.59766V17ZM111.289 18.2188C111.289 18.7422 111.223 19.2109 111.09 19.625C110.957 20.0469 110.781 20.4141 110.562 20.7266C110.344 21.0469 110.09 21.3164 109.801 21.5352C109.512 21.7617 109.207 21.9453 108.887 22.0859C108.574 22.2266 108.258 22.3281 107.938 22.3906C107.617 22.4609 107.312 22.4961 107.023 22.4961H101.527V19.4492H107.023C107.43 19.4492 107.734 19.3438 107.938 19.1328C108.141 18.9219 108.242 18.6172 108.242 18.2188V4.33203H111.289V18.2188ZM107.023 17H101.527C101.09 17 100.621 16.9258 100.121 16.7773C99.6289 16.6289 99.168 16.3867 98.7383 16.0508C98.3086 15.707 97.9531 15.2656 97.6719 14.7266C97.3906 14.1797 97.25 13.5117 97.25 12.7227V4.33203H100.297V12.7227C100.297 13.1211 100.402 13.4258 100.613 13.6367C100.824 13.8477 101.137 13.9531 101.551 13.9531H107.023V17Z" fill="white"/>
</svg>
