<svg width="29" height="29" viewBox="0 0 29 29" fill="none" xmlns="http://www.w3.org/2000/svg">
<path d="M27.5083 11.2109C28.3717 11.3662 29 12.1178 29 12.995V16.0056C29 16.8828 28.3717 17.6344 27.5083 17.7897L25.7115 18.1129C25.5152 18.7225 25.2663 19.3074 24.9781 19.8692L26.0233 21.3736C26.5241 22.0938 26.4371 23.0695 25.8166 23.69L23.6882 25.8185C23.0677 26.4389 22.092 26.5259 21.3718 26.0251L19.8674 24.9793C19.3055 25.2675 18.7207 25.5164 18.1117 25.7127L17.7885 27.5095C17.6338 28.3717 16.8822 29 16.005 29H12.9944C12.1172 29 11.3656 28.3717 11.2103 27.5083L10.8871 25.7115C10.2775 25.5152 9.69265 25.2669 9.13138 24.9781L7.627 26.0239C6.90683 26.5247 5.9311 26.4377 5.31063 25.8172L3.18215 23.6888C2.56167 23.0683 2.47467 22.0932 2.97552 21.3724L4.02073 19.868C3.73254 19.3061 3.48363 18.7213 3.28727 18.1117L1.49048 17.7885C0.628333 17.6338 0 16.8822 0 16.005V12.9944C0 12.1172 0.628333 11.3656 1.49169 11.2103L3.28848 10.8871C3.48483 10.2775 3.73375 9.69265 4.02194 9.13077L2.97673 7.6264C2.47588 6.90623 2.56287 5.9305 3.18335 5.31002L5.31183 3.18154C5.93231 2.56106 6.90804 2.47406 7.62821 2.97492L9.13258 4.02073C9.69446 3.73254 10.2793 3.48363 10.8883 3.28727L11.2115 1.49048C11.3662 0.628333 12.1178 0 12.995 0H16.0056C16.8828 0 17.6344 0.628333 17.7897 1.49169L18.1129 3.28848C18.7225 3.48483 19.3074 3.73315 19.8686 4.02194L21.373 2.97613C22.0932 2.47527 23.0689 2.56227 23.6894 3.18275L25.8179 5.31123C26.4383 5.93171 26.5253 6.90683 26.0245 7.6276L24.9793 9.13198C25.2675 9.69385 25.5164 10.2787 25.7127 10.8883L27.5083 11.2109ZM14.5 19.9375C17.5027 19.9375 19.9375 17.5033 19.9375 14.5C19.9375 11.4967 17.5027 9.0625 14.5 9.0625C11.4973 9.0625 9.0625 11.4967 9.0625 14.5C9.0625 17.5033 11.4973 19.9375 14.5 19.9375Z" fill="#6A6A6A"/>
</svg>
